<?xml version="1.0" encoding="utf-8"?>
<!-- Generator: Adobe Illustrator 15.0.2, SVG Export Plug-In . SVG Version: 6.00 Build 0)  -->
<!DOCTYPE svg PUBLIC "-//W3C//DTD SVG 1.1//EN" "http://www.w3.org/Graphics/SVG/1.1/DTD/svg11.dtd">
<svg version="1.1" id="Vrstva_1" xmlns="http://www.w3.org/2000/svg" xmlns:xlink="http://www.w3.org/1999/xlink" x="0px" y="0px"
	 width="16px" height="24px" viewBox="4 0 16 24" enable-background="new 4 0 16 24" xml:space="preserve">
<g>
	<path d="M9.294,6.883c0.303,0.072,0.598,0.172,0.868,0.308c0.096-0.241,0.209-0.475,0.334-0.697
		c-0.354-0.256-0.679-0.453-0.894-0.573C9.518,6.142,9.399,6.482,9.294,6.883z"/>
	<path d="M10.776,11c-0.54-0.566-0.886-1.495-0.887-2.58c0-0.237,0.04-0.477,0.1-0.714C9.295,7.329,8.306,7.237,7.574,7.238
		c-0.282,0-0.512,0.013-0.685,0.025l0.009,0.04l0.003,0.014l0,0l0.03,0.122l0.007,0.026l0.039,0.15l0.008,0.032l0.048,0.172
		l0.003,0.012l0,0L7.09,8.006L7.1,8.038l0.062,0.188l0,0l0.014,0.04l0.073,0.203l0.004,0.012l0.078,0.196l0.015,0.036l0,0
		l0.088,0.201l0.018,0.039l0.1,0.207l0.003,0.007l0.106,0.197l0.019,0.033l0,0l0.115,0.188l0.023,0.033l0.13,0.185l0,0L8.084,9.97
		l0.023,0.027l0.143,0.146l0.027,0.024l0.159,0.132l0,0c0.655,0.487,1.388,0.749,1.986,0.748C10.55,11.047,10.663,11.023,10.776,11z
		"/>
	<path d="M11.454,10.882c0.156,0.093,0.319,0.144,0.49,0.144c0.402,0.001,0.781-0.277,1.063-0.749
		c0.28-0.471,0.457-1.129,0.457-1.856c0.001-0.568-0.264-1.199-0.586-1.752l-0.002-0.001l-0.008-0.015l-0.021-0.041l-0.001,0
		c-0.321-0.539-0.685-0.99-0.901-1.242c-0.352,0.409-1.091,1.348-1.388,2.292l-0.002,0.006c-0.08,0.255-0.129,0.51-0.129,0.752
		c-0.002,1.144,0.442,2.113,1.023,2.458l0.003,0.001l0.001,0.001L11.454,10.882z"/>
	<path d="M12,0C7.802,0,4,3.403,4,7.602C4,11.8,7.469,16.813,12,24c4.531-7.188,8-12.2,8-16.398C20,3.403,16.199,0,12,0z
		 M15.883,10.777c-0.753,0.558-1.583,0.854-2.305,0.854c-0.36,0-0.691-0.08-0.974-0.236c-0.206,0.104-0.428,0.166-0.661,0.166
		c-0.23,0-0.449-0.06-0.652-0.16c-0.255,0.116-0.547,0.176-0.861,0.176c-0.729,0-1.571-0.298-2.314-0.849
		c-1.063-0.792-1.555-2.512-1.735-3.28c-0.05-0.215-0.075-0.356-0.079-0.381L6.302,7.06V7.053l0.003-0.088l0.003-0.01l0.002-0.006
		l0.013-0.038l0.004-0.007l0.006-0.01l0.011-0.019L6.35,6.866l0.007-0.008l0.008-0.009l0.02-0.022L6.39,6.822l0.014-0.011
		L6.406,6.81l0.022-0.016l0.005-0.002l0.017-0.008l0,0l0.025-0.012L6.482,6.77l0.017-0.004l0.024-0.007h0.01
		C6.577,6.752,7.002,6.7,7.586,6.7c0.353,0,0.764,0.022,1.182,0.082c0.194-0.755,0.441-1.32,0.454-1.348L9.228,5.42l0.011-0.011
		l0.134-0.125l0.032,0.002L9.57,5.295l0.014,0.007c0.028,0.014,0.565,0.286,1.188,0.732c0.46-0.703,0.937-1.21,0.978-1.253
		l0.011-0.011l0.014-0.006l0.168-0.072l0.029,0.013l0.153,0.065l0.011,0.012c0.041,0.043,0.55,0.585,1.026,1.329
		c0.617-0.44,1.146-0.708,1.173-0.721l0.119-0.028c0.096,0,0.188,0.052,0.236,0.143c0.015,0.027,0.285,0.554,0.486,1.333
		c0.437-0.066,0.868-0.09,1.236-0.09c0.583,0,1.009,0.052,1.053,0.058l0.015,0.001l0.014,0.008l0.131,0.076l0.027,0.016l0.008,0.031
		l0.038,0.163l-0.002,0.015C17.674,7.229,17.241,9.763,15.883,10.777z"/>
	<path d="M13.435,6.575c0.124,0.226,0.233,0.463,0.324,0.707c0.274-0.149,0.578-0.258,0.893-0.337
		c-0.106-0.408-0.23-0.736-0.32-0.943C14.119,6.121,13.791,6.317,13.435,6.575z"/>
	<path d="M15.563,10.348c0.926-0.68,1.397-2.37,1.546-3.036c-0.174-0.013-0.403-0.026-0.686-0.026
		c-0.764-0.001-1.81,0.1-2.505,0.521c0.046,0.204,0.079,0.409,0.079,0.613c-0.001,1.092-0.353,2.027-0.898,2.592
		c0.146,0.045,0.299,0.083,0.476,0.083C14.172,11.096,14.906,10.836,15.563,10.348z"/>
	<path fill="#FFFFFF" d="M17.661,6.939l-0.008-0.031l-0.027-0.016l-0.131-0.076l-0.014-0.008l-0.015-0.001
		c-0.044-0.006-0.47-0.058-1.053-0.058c-0.368,0-0.8,0.024-1.236,0.09c-0.201-0.78-0.472-1.307-0.486-1.333
		c-0.048-0.09-0.141-0.143-0.236-0.143l-0.119,0.028c-0.026,0.013-0.556,0.281-1.173,0.721c-0.476-0.744-0.985-1.286-1.026-1.329
		l-0.011-0.012l-0.153-0.065l-0.029-0.013l-0.168,0.072l-0.014,0.006L11.75,4.782c-0.041,0.042-0.517,0.55-0.978,1.253
		C10.15,5.588,9.612,5.316,9.584,5.302L9.57,5.295L9.404,5.287L9.373,5.285L9.238,5.409L9.228,5.42L9.221,5.434
		C9.208,5.462,8.962,6.027,8.768,6.782C8.35,6.722,7.938,6.7,7.586,6.7c-0.583,0-1.009,0.052-1.053,0.058h-0.01L6.499,6.765
		L6.482,6.77L6.475,6.771L6.45,6.783l0,0L6.433,6.792L6.428,6.794L6.406,6.81L6.404,6.811L6.39,6.822L6.385,6.826l-0.02,0.022
		L6.356,6.858L6.35,6.866L6.345,6.875L6.334,6.894l-0.006,0.01L6.323,6.911L6.311,6.948L6.308,6.955l-0.003,0.01L6.302,7.053V7.06
		l0.001,0.007c0.004,0.025,0.029,0.166,0.079,0.381c0.18,0.768,0.672,2.488,1.735,3.28c0.743,0.551,1.585,0.848,2.314,0.849
		c0.314,0,0.606-0.06,0.861-0.176c0.203,0.101,0.422,0.16,0.652,0.16c0.233,0,0.455-0.061,0.661-0.166
		c0.282,0.156,0.613,0.236,0.974,0.236c0.722,0,1.552-0.297,2.305-0.854c1.358-1.014,1.791-3.548,1.814-3.661l0.002-0.015
		L17.661,6.939z M11.448,10.879c-0.582-0.346-1.025-1.314-1.023-2.458c0-0.242,0.049-0.497,0.129-0.752l0.002-0.006
		c0.297-0.944,1.036-1.883,1.388-2.292c0.217,0.252,0.58,0.703,0.901,1.242l0.001,0l0.021,0.041l0.008,0.015l0.002,0.001
		c0.322,0.554,0.587,1.185,0.586,1.752c0,0.727-0.177,1.385-0.457,1.856c-0.281,0.472-0.66,0.75-1.063,0.749
		c-0.17,0-0.334-0.051-0.49-0.144l-0.001,0l-0.001-0.001L11.448,10.879z M10.162,7.191C9.892,7.055,9.597,6.955,9.294,6.883
		c0.105-0.401,0.224-0.741,0.308-0.962c0.215,0.121,0.541,0.317,0.894,0.573C10.372,6.716,10.258,6.95,10.162,7.191z M8.437,10.299
		L8.437,10.299l-0.159-0.132L8.25,10.143L8.108,9.997L8.084,9.97L7.947,9.802l0,0l-0.13-0.185L7.794,9.584L7.679,9.396l0,0
		L7.661,9.363L7.554,9.166L7.551,9.159l-0.1-0.207L7.433,8.914L7.345,8.712l0,0L7.331,8.677L7.253,8.481L7.249,8.469L7.176,8.266
		l-0.014-0.04l0,0L7.1,8.038L7.09,8.006L7.037,7.831l0,0L7.034,7.819L6.985,7.647L6.977,7.615l-0.039-0.15L6.931,7.438l-0.03-0.122
		l0,0L6.898,7.303L6.89,7.263C7.062,7.25,7.292,7.238,7.574,7.238c0.731-0.001,1.721,0.091,2.415,0.468
		c-0.061,0.237-0.1,0.477-0.1,0.714c0.001,1.085,0.347,2.014,0.887,2.58c-0.113,0.023-0.226,0.047-0.354,0.047
		C9.825,11.048,9.092,10.786,8.437,10.299z M13.998,8.42c0-0.204-0.033-0.41-0.079-0.613c0.695-0.421,1.741-0.522,2.505-0.521
		c0.282,0,0.512,0.013,0.686,0.026c-0.148,0.666-0.62,2.356-1.546,3.036c-0.657,0.488-1.392,0.748-1.988,0.748
		c-0.177,0-0.329-0.038-0.476-0.083C13.646,10.447,13.997,9.513,13.998,8.42z M13.759,7.281c-0.091-0.243-0.2-0.481-0.324-0.707
		c0.356-0.257,0.685-0.454,0.896-0.573c0.09,0.207,0.214,0.535,0.32,0.943C14.337,7.023,14.033,7.132,13.759,7.281z"/>
</g>
</svg>
