<svg id="Layer_1_1_" enable-background="new 0 0 256 256" height="512" viewBox="0 0 256 256" width="512" xmlns="http://www.w3.org/2000/svg"><path d="m22.891 209.664c.331.221.717.336 1.109.336.131 0 .262-.013.392-.039l16.246-3.249c-5.114 3.129-12.638 8.683-12.638 14.288 0 6.214 4.931 8.604 11.757 11.913 2.721 1.319 5.806 2.814 9.235 4.815 4.281 2.497 13.571 3.065 25.432 2.534-2.657 1.421-4.096 4.437-3.417 7.488.705 3.172 3.539 5.345 6.667 5.345.474 0 .956-.05 1.438-.154l32.063-6.933c3.94.153 52.166 1.992 79.825 1.992 30.058 0 38-17.007 38-26 0-3.57-2.509-7.349-7.457-11.229-1.959-1.536-4.057-2.891-6.271-4.077l16.335 3.267c.132.027.264.04.394.04.934 0 1.769-.658 1.959-1.608 1.324-6.619-2.718-13.271-9.203-15.144l-12.241-3.536-27.985-26.208c-1.609-1.506-2.532-3.635-2.532-5.839v-43.851c0-5.25-2.781-9.982-7.257-12.35-2.343-1.239-4.749-1.681-7.322-1.356l.013-.059-25.433-5.654v-9.448c8.211-7.826 13.709-21.572 13.709-33.653 0-10.179-4.095-19.262-10.466-25.163.206-.857.406-1.798.406-2.781 0-9.732-7.917-17.649-17.649-17.649s-17.649 7.917-17.649 17.649c0 1.065.225 1.952.447 2.744-6.395 5.9-10.507 15-10.507 25.201 0 12.081 5.498 25.827 13.709 33.653v9.448l-25.434 5.652.013.06c-2.573-.325-4.979.117-7.322 1.356-4.476 2.366-7.257 7.098-7.257 12.348v43.854c0 2.203-.921 4.33-2.528 5.836l-28.477 26.697-11.682 3.186c-6.527 1.78-10.6 8.371-9.273 15.005.103.521.409.979.851 1.273zm73.245-43.278c.257-.543.482-1.098.697-1.656l1.191 7.581c.097.615.468 1.126.976 1.42v15.472l-45.801 12.722c.51-.372 1.011-.757 1.492-1.169l2.433-2.085 24.185-12.482c4.649-2.399 8.442-6.325 10.682-11.053zm56.864 22.614h-50v-15h50zm-84.065 47.435c-1.395-1.693-4.935-6.479-4.935-11.435 0-4.938 2.241-9.415 3.211-11.122l16.716-1.857 51.64 9.563c1.938.361 3.938-.259 5.335-1.657l5.129-5.129c.434-.433 1.058-.641 1.663-.57l14.059 1.757c.054.007.107.011.161.014l19.67.855c.794.035 1.417.685 1.417 1.48 0 .67-.45 1.258-1.093 1.43-6.589 1.754-29.174 7.607-43.141 9.25-2.846.335-6.935.898-11.668 1.551-14.753 2.034-40.365 5.563-58.164 5.87zm42.144 5.566c-.168-.006-.336.008-.501.044l-32.31 6.986c-1.511.33-3.02-.637-3.355-2.148-.32-1.441.5-2.863 1.907-3.307l14.503-4.58c11.534-1.131 24.136-2.788 36.322-4.468 4.712-.649 8.782-1.211 11.589-1.541 12.018-1.414 29.677-5.714 39.706-8.309 1.567 1.259 5.31 4.686 5.31 8.698 0 4.286-2.54 8.755-3.686 10.555-29.015-.353-69.034-1.912-69.485-1.93zm113.921-20.001c0 7.609-7.106 22-34 22-1.856 0-3.807-.008-5.83-.024 1.413-2.631 3.08-6.579 3.08-10.601 0-4.241-2.557-7.736-4.738-9.953 1.446-.566 2.563-1.707 3.109-3.122 1.866-.745 5.341-1.905 7.796-1.802l.166-3.996c-2.714-.111-5.938.817-8.081 1.576-.826-1.827-2.611-3.128-4.745-3.221l-19.589-.852-13.978-1.747c-1.852-.229-3.669.392-4.987 1.711l-5.129 5.129c-.465.465-1.129.673-1.778.552l-51.931-9.617c-.193-.035-.39-.042-.585-.021l-27 3 .441 3.976 5.237-.582c-.097.222-.196.447-.299.692-.985 2.336-2.159 5.95-2.159 9.902 0 4.482 2.132 8.657 3.969 11.43-5.953-.136-10.591-.774-12.962-2.157-3.563-2.078-6.72-3.609-9.506-4.959-6.758-3.277-9.501-4.749-9.501-8.314 0-3.932 8.551-10.002 14.724-13.125l53.548-14.875h55.452l47.785 13.439c5.874 1.468 11.11 3.985 15.565 7.479 3.822 2.997 5.926 5.867 5.926 8.082zm-20.464-19.427-47.536-13.369v-15.474c.508-.294.879-.805.976-1.42l1.191-7.581c.215.558.44 1.113.697 1.656l4.013 8.472c2.333 4.923 6.317 8.944 11.219 11.321l25.652 12.437c1.414 1.634 3.047 3.052 4.828 4.245-.347-.094-.689-.199-1.04-.287zm-31.663-97.574c3.163 1.673 5.127 5.051 5.127 8.814v43.851c0 3.307 1.384 6.499 3.797 8.759l28.335 26.537c.23.216.509.374.812.461l12.703 3.669c3.846 1.111 6.455 4.642 6.562 8.512l-15.159-3.032c-4.493-.899-8.582-3.332-11.514-6.851-.182-.218-.408-.396-.664-.52l-26.031-12.621c-4.085-1.98-7.405-5.331-9.349-9.434l-4.013-8.471c-1.009-2.129-1.628-4.399-1.843-6.745l-1.615-17.708 8.558-36.21c1.499-.074 2.889.245 4.294.989zm-44.873-95.299c7.511 0 13.622 6.099 13.647 13.604-4.032-2.662-8.687-4.19-13.647-4.19s-9.615 1.529-13.647 4.19c.025-7.505 6.136-13.604 13.647-13.604zm0 13.414c11.653 0 21.363 10.047 23.336 23.234-4.994-8.469-13.604-13.821-23.336-13.821-9.802 0-18.502 5.728-23.465 14.752 1.645-13.643 11.539-24.165 23.465-24.165zm-23.115 34.795c2.55-12.409 12.214-21.382 23.115-21.382 11.236 0 20.742 8.479 23.236 20.654-2.243 14.55-12.203 30.119-23.236 30.119-10.849 0-20.658-15.055-23.115-29.391zm23.115 33.391c3.531 0 6.9-1.169 10-3.172v16.872c0 5.514-4.486 10-10 10s-10-4.486-10-10v-16.873c3.1 2.004 6.469 3.173 10 3.173zm0 27.7c7.72 0 14-6.28 14-14v-6.507l22.587 5.019-8.534 36.105c-.05.21-.065.427-.045.642l1.085 11.899-2.803 17.842h-52.58l-2.804-17.843 1.085-11.899c.02-.215.004-.432-.045-.642l-8.534-36.105 22.588-5.018v6.507c0 7.72 6.28 14 14 14zm-95.635 78.247 12.161-3.317c.314-.086.604-.248.841-.471l28.839-27.037c2.411-2.259 3.793-5.45 3.793-8.754v-43.854c0-3.764 1.965-7.142 5.127-8.815 1.27-.671 2.526-1 3.862-1 .143 0 .286.004.431.011l8.558 36.21-1.615 17.708c-.214 2.346-.834 4.616-1.843 6.745l-4.145 8.75c-1.866 3.939-5.027 7.21-8.902 9.21l-24.392 12.589c-.138.071-.267.158-.384.259l-2.61 2.237c-2.613 2.24-5.777 3.78-9.15 4.455l-17.146 3.429c.118-3.84 2.73-7.307 6.575-8.355z"/></svg>