<svg id="Layer_1_1_" enable-background="new 0 0 256 256" height="512" viewBox="0 0 256 256" width="512" xmlns="http://www.w3.org/2000/svg"><path d="m241.333 147.604c1.248-2.777 1.813-5.854 1.635-8.899l-.323-5.49c-.307-5.215-3.084-10.057-7.43-12.953-4.231-2.821-9.516-3.835-14.497-2.774-.425.09-.897.194-1.413.311-17.781 4.023-34.792 10.973-50.557 20.655l-5.915 3.633-1.41-28.747c-.297-5.201-1.886-10.304-4.596-14.756l-7.667-12.596c-1.518-2.492-2.63-5.197-3.306-8.037-2.572-10.802-10.741-19.609-21.319-22.985l-19.66-6.274c-3.157-1.007-6.544-1.335-9.86-.97-10.235-9.936-21.737-20.763-23.815-22.322-.285-.214-28.866-21.4-34.2-21.4h-9.057c-3.531 0-6.688 2.366-7.679 5.755-1.966 6.725-5.264 19.209-5.264 27.245 0 9.987-.84 32.71-.979 36.411l-3.423 5.705c-1.739 2.899-2.374 6.329-1.786 9.658l1.492 8.452c.547 3.099 2.144 5.957 4.496 8.049l1.792 1.593c1.348 1.198 3.044 1.841 4.828 1.841.185 0 .372-.007.558-.021.349-.026.688-.084 1.023-.157v109.875c0 6.585 1.557 13.179 4.501 19.069 2.629 5.258 7.915 8.524 13.793 8.524h1.11c4.592 0 9.128-.736 13.574-2.222 1.64-.636 40.247-15.633 48.697-20.807l36.19-22.157 23.089-8.209c11.867-4.22 22.55-11.436 30.896-20.869l4.783-5.407c-5.171 17.931-8.012 45.464-8.376 49.14l-10.958 23.742c-.742 1.607-1.03 3.387-.835 5.146.547 4.928 4.699 8.644 9.657 8.644h48.162c2.719 0 4.932-2.212 4.932-4.932 0-2.056-1.292-3.914-3.216-4.623-13.558-5.004-28.976-13.543-27.807-21.142 1.322-8.594 16.436-44.222 30.14-74.699zm-120.893-12.6c-.055-.554-.123-1.107-.219-1.66l-.614-3.528c-.271-1.559-.621-3.093-1.03-4.605 4.679-1.24 16.199-4.307 19.752-5.378 3.552-1.073 14.04-6.478 18.8-8.974.14.893.249 1.791.3 2.693l.957 19.518-6.698-2.131c-8.262-2.625-17.164-2.115-25.03 1.424zm-93.409-28.918c1.319-1.582 1.908-3.658 1.616-5.696l-.714-5.001.213.244c.966 1.104 2.41 1.653 3.865 1.466.18-.023.357-.057.53-.101l1.691 6.483c1.286 4.929 3.531 9.459 6.674 13.466l5.53 7.05c.037.047.076.093.117.137 1.492 1.584 1.455 4.03-.084 5.569l-5.174 5.174c-.889.889-1.311 2.162-1.115 3.491l8.528 44.776c.064.444.118.89.162 1.336.122 1.255.128 2.655.021 4.405l-.849 13.789-21.042 9.554v-106.108c.01-.012.021-.022.031-.034zm25.821 78.008c-.049-.51-.111-1.018-.199-1.612l-8.529-44.777 5.174-5.174c3.055-3.055 3.151-7.898.235-11.069l-5.479-6.983c-2.803-3.572-4.805-7.612-5.952-12.007l-2.339-8.968c.111-.626.102-1.27-.064-1.894l-.376-1.411c2.558 1.995 5.325 3.551 8.165 4.585-1.369 7.164 2.279 14.421 8.906 17.101 1.851.748 3.789 1.122 5.727 1.122 2.021 0 4.042-.407 5.96-1.221 3.755-1.593 6.665-4.552 8.193-8.333 1.93-4.771 1.761-9.817-.35-13.672 1.845-1.361 3.481-2.908 4.817-4.614.027-.034.052-.069.079-.103 1.866 3.207 4.467 6.001 7.683 8.068l13.893 8.931c1.554.999 3.004 2.168 4.311 3.475 6.825 6.824 11.306 15.457 12.959 24.966l.614 3.528c.449 2.585.354 5.187-.282 7.733-.335 1.338-.828 2.616-1.441 3.836-3.612 1.716-8.956 4.971-14.971 10.987-4.002 4.002-6.958 9.312-8.782 15.78-2.094 7.423-6.766 13.833-13.154 18.049l-25.898 17.093 1.132-18.377c.12-1.968.11-3.569-.032-5.039zm21.073-115.62-.202 1.612c-.012.095-.014.19-.025.285-20.425-1.188-36.834-12.67-41.483-16.251 3.903-5.693 8.893-12.204 8.95-12.278.075-.097.14-.201.196-.31l2.037-3.999 31.147 27.871c-.267 1.019-.491 2.044-.62 3.07zm-36.046-28.92c-.508.664-2.55 3.345-4.918 6.596.553-2.101 1.163-3.925 1.828-5.255 1.358-2.718 2.887-5.178 4.293-7.222l1.232 1.102zm-7.21 18.436c5.952 4.472 22.301 15.237 42.928 16.38.131 2.258.581 4.47 1.325 6.578-.447.604-.893 1.193-1.329 1.75-5.824 7.438-18.819 11.482-27.813 8.661-4.514-1.417-8.901-4.45-12.426-8.549l-1.42-5.326c-.035-.131-.083-.258-.144-.379l-2.747-5.493c.159-1.758.707-7.449 1.626-13.622zm37.897 43.961c-1.128 2.791-3.276 4.976-6.047 6.15-2.771 1.177-5.834 1.202-8.625.072-4.756-1.923-7.397-7.121-6.534-12.339 1.534.275 3.119.425 4.739.425 5.568 0 11.458-1.576 16.429-4.322 1.425 2.782 1.477 6.457.038 10.014zm35.092-49.45 19.661 6.274c9.25 2.952 16.394 10.654 18.643 20.101.773 3.249 2.046 6.341 3.781 9.191l7.667 12.596c1.178 1.935 2.112 4.011 2.788 6.165-5.288 2.787-15.872 8.221-19.025 9.174-3.49 1.053-15.26 4.186-19.794 5.387-2.501-6.992-6.508-13.348-11.843-18.682-1.508-1.508-3.182-2.858-4.976-4.012l-13.893-8.931c-6.395-4.109-9.917-11.64-8.974-19.183l.202-1.612c.013-.1.038-.201.052-.301l11.194 11.853c3.204 3.392 8.015 4.846 12.561 3.798l1.144-.265c4.137-.955 7.581-3.864 9.213-7.782 1.999-4.798.989-10.34-2.572-14.119-2.304-2.446-6.118-6.263-10.472-10.532 1.58.11 3.143.401 4.643.88zm-81.98 52.198c-.898.068-1.759-.225-2.43-.821l-1.792-1.593c-1.682-1.495-2.823-3.538-3.214-5.754l-1.492-8.452c-.42-2.38.033-4.832 1.276-6.904l3.688-6.146c.173-.289.271-.616.284-.952.01-.261 1.002-26.165 1.002-37.077 0-7.538 3.197-19.603 5.103-26.122.496-1.694 2.074-2.878 3.84-2.878l9.021-.001c3.268.323 24.057 14.767 31.836 20.601 2.8 2.101 29.412 27.419 37.776 36.296 2.48 2.633 3.184 6.495 1.791 9.838-1.138 2.73-3.538 4.759-6.421 5.424l-1.143.264c-3.164.732-6.521-.282-8.753-2.646l-12.596-13.337c-.039-.041-.079-.08-.121-.117l-37.876-33.892c1.375-1.766 2.323-2.796 2.345-2.82l-2.933-2.72c-.226.243-5.577 6.054-9.658 14.216-4.125 8.25-6.121 31.732-6.204 32.729-.03.365.04.732.204 1.061l2.909 5.817 3.714 13.927c.025.093.015.192-.029.278-.077.155-.207.202-.301.214-.098.016-.232 0-.347-.132l-4.652-5.316c-.583-.666-1.536-.87-2.339-.5-.805.369-1.271 1.224-1.146 2.101l1.667 11.673c.132.919-.134 1.855-.729 2.569-.575.689-1.384 1.106-2.28 1.172zm170.177 64.387c-7.898 8.928-18.009 15.757-29.239 19.75l-23.286 8.279c-.131.047-.256.106-.375.179l-36.368 22.266c-8.146 4.988-47.657 20.335-47.964 20.457-3.946 1.316-8.057 1.983-12.218 1.983h-1.11c-4.354 0-8.269-2.419-10.215-6.313-2.669-5.338-4.08-11.313-4.08-17.28v-1.785l20.763-9.428-.189 3.071-7.676 5.066 2.203 3.338 37.751-24.916c7.189-4.744 12.446-11.954 14.801-20.301 1.637-5.802 4.248-10.525 7.761-14.038 2.447-2.447 4.759-4.392 6.866-5.946l-2.406 3.408c-.261.37-.529.799-.798 1.276-3.131 5.578-3.66 12.37-1.449 18.634l.487 1.379 3.771-1.332-.487-1.379c-1.827-5.177-1.402-10.77 1.165-15.343.201-.358.396-.671.578-.929l6.262-8.87c1.623-2.3 2.792-4.85 3.475-7.58.281-1.123.472-2.255.579-3.391l7.802-3.316c7.004-3.153 14.893-3.607 22.214-1.276l8.12 2.584.35 7.14-15.991 9.822 2.094 3.408 25.794-15.843c15.391-9.452 31.993-16.236 49.343-20.162.496-.111.952-.212 1.364-.3 3.935-.834 8.106-.038 11.448 2.19 3.308 2.205 5.422 5.891 5.655 9.859l.323 5.49c.141 2.404-.305 4.833-1.29 7.024-.85 1.89-1.947 4.34-3.217 7.195l-27.904 5.603c.691-1.433 1.404-2.606 2.139-3.423 8.833-9.815 11.898-12.895 11.928-12.924l-2.829-2.828c-.124.124-3.14 3.151-12.073 13.076-.726.806-1.424 1.859-2.097 3.11zm45.76 78.111c.359.133.601.482.601.871 0 .514-.418.932-.932.932h-48.162c-2.917 0-5.359-2.187-5.682-5.085-.115-1.035.055-2.082.491-3.028l11.1-24.049c.094-.204.153-.423.175-.646 1.101-11.453 4.601-38.641 9.565-52.991l27.71-5.564c-9.095 20.588-23.832 54.883-25.243 64.059-1.876 12.206 20.618 21.901 30.377 25.501z"/></svg>